<svg width="25" height="25" viewBox="0 0 25 25" fill="none" xmlns="http://www.w3.org/2000/svg">
<path fill-rule="evenodd" clip-rule="evenodd" d="M15.1216 15.1211C17.9053 12.3374 17.9053 7.82411 15.1216 5.04041C12.3378 2.25671 7.82459 2.25671 5.0409 5.04041C2.2572 7.82411 2.2572 12.3374 5.0409 15.1211C7.82459 17.9048 12.3378 17.9048 15.1216 15.1211ZM13.9585 13.9579C16.0997 11.8166 16.0997 8.34487 13.9585 6.20356C11.8172 4.06226 8.34542 4.06226 6.20411 6.20356C4.06281 8.34487 4.06281 11.8166 6.20411 13.9579C8.34542 16.0992 11.8172 16.0992 13.9585 13.9579Z" fill="#BDBEBE"/>
<path d="M14.9993 16.3146C14.7034 16.0187 14.7034 15.539 14.9993 15.2432L15.2428 14.9997C15.5386 14.7039 16.0183 14.7039 16.3141 14.9997L19.6256 18.3112C19.9215 18.6071 19.9215 19.0868 19.6256 19.3826L19.3822 19.6261C19.0863 19.922 18.6066 19.922 18.3108 19.6261L14.9993 16.3146Z" fill="#BDBEBE"/>
</svg>
